<svg width="61" height="63" viewBox="0 0 61 63" fill="none" xmlns="http://www.w3.org/2000/svg">
<path d="M47.8962 15.9923C47.4054 16.2333 46.7891 16.3409 46.2039 15.9923M31.7496 18.9579C31.2589 19.1989 30.6425 19.3066 30.0573 18.9579M13.569 15.9923C14.0597 16.2333 14.6761 16.3409 15.2612 15.9923M14.5061 0C8.90399 0.000106857 6.86099 10.1493 14.5058 12.5218C22.1506 10.1493 20.1082 -0.000106856 14.5061 0ZM46.959 0C52.5611 0.00010686 54.6041 10.1493 46.9594 12.5218C39.3146 10.1493 41.357 -0.000106853 46.959 0ZM45.6412 15.4874C46.0806 14.9382 47.2888 14.1694 48.6068 15.4874C48.4368 15.6575 48.1888 15.8486 47.8962 15.9923L48.2773 22.0778C49.3757 20.4413 51.4407 16.5027 50.9135 13.8398C52.4512 13.73 55.8562 13.8398 57.1743 15.1579C57.3939 15.3776 57.8333 16.0147 57.8333 16.8055V30.3157C57.7235 31.3042 56.8448 33.2813 54.2086 33.2813L52.8906 54.6999C51.902 55.6884 49.3318 57.1383 46.9593 55.0294C45.8609 56.0179 43.2687 57.336 41.687 54.6999L40.0394 38.2241C41.2477 38.1142 43.6641 36.5106 43.6641 30.9747C43.6641 25.4388 43.4444 20.7597 43.3346 19.1121C43.1149 17.9039 41.4893 15.4215 36.7443 15.1579C38.0623 13.8398 41.4674 13.73 43.0051 13.8398C42.6821 16.7396 44.8476 20.54 45.9707 22.0778L46.2039 15.9923C46.0111 15.8774 45.8216 15.713 45.6412 15.4874ZM30.8125 2.96565C36.4146 2.96575 38.4576 13.1149 30.8128 15.4874C23.168 13.1149 25.2104 2.96554 30.8125 2.96565ZM29.4947 18.4531C29.934 17.9039 31.1422 17.135 32.4603 18.4531C32.2903 18.6231 32.0423 18.8142 31.7496 18.9579L32.1308 25.0434C33.2292 23.407 35.2941 19.4684 34.7669 16.8055C36.3047 16.6957 39.7097 16.8055 41.0277 18.1236C41.2474 18.3432 41.6868 18.9803 41.6868 19.7711V33.2813C41.5769 34.2699 40.6982 36.247 38.0621 36.247L36.744 57.6655C35.7555 58.6541 33.1852 60.1039 30.8127 57.995C28.4402 60.1039 25.87 58.6541 24.8814 57.6655L23.5634 36.247C20.9272 36.247 20.0485 34.2699 19.9387 33.2813V19.7711C19.9387 18.9803 20.378 18.3432 20.5977 18.1236C21.9158 16.8055 25.3208 16.6957 26.8585 16.8055C26.3313 19.4684 28.3963 23.407 29.4947 25.0434L29.8266 25.7023L29.8242 25.0434L30.0573 18.9579C29.8645 18.843 29.6751 18.6786 29.4947 18.4531ZM12.8583 15.4874C14.1764 14.1694 15.3846 14.9382 15.8239 15.4874C15.6435 15.713 15.4541 15.8774 15.2612 15.9923L15.4944 22.0778C16.6176 20.54 18.7831 16.7396 18.4601 13.8398C19.9978 13.73 23.4028 13.8398 24.7209 15.1579C19.9758 15.4215 18.3502 17.9039 18.1306 19.1121C18.0207 20.7597 17.801 25.4388 17.801 30.9747C17.801 36.5106 20.2175 38.1142 21.4257 38.2241L19.7781 54.6999C18.1965 57.336 15.6043 56.0179 14.5059 55.0294C12.1334 57.1383 9.56313 55.6884 8.57458 54.6999L7.25651 33.2813C4.62038 33.2813 3.74167 31.3042 3.63184 30.3157V16.8055C3.63184 16.0147 4.07119 15.3776 4.29087 15.1579C5.60893 13.8398 9.01393 13.73 10.5517 13.8398C10.0244 16.5027 12.0894 20.4413 13.1878 22.0778L13.569 15.9923C13.2763 15.8486 13.0283 15.6575 12.8583 15.4874Z" fill="#EDDCC0"/>
<path d="M47.8962 15.9923C47.4054 16.2333 46.7891 16.3409 46.2039 15.9923M31.7496 18.9579C31.2589 19.1989 30.6425 19.3066 30.0573 18.9579M13.569 15.9923C14.0597 16.2333 14.6761 16.3409 15.2612 15.9923M14.5061 0C8.90399 0.000106857 6.86099 10.1493 14.5058 12.5218C22.1506 10.1493 20.1082 -0.000106856 14.5061 0ZM46.959 0C52.5611 0.00010686 54.6041 10.1493 46.9594 12.5218C39.3146 10.1493 41.357 -0.000106853 46.959 0ZM45.6412 15.4874C46.0806 14.9382 47.2888 14.1694 48.6068 15.4874C48.4368 15.6575 48.1888 15.8486 47.8962 15.9923L48.2773 22.0778C49.3757 20.4413 51.4407 16.5027 50.9135 13.8398C52.4512 13.73 55.8562 13.8398 57.1743 15.1579C57.3939 15.3776 57.8333 16.0147 57.8333 16.8055V30.3157C57.7235 31.3042 56.8448 33.2813 54.2086 33.2813L52.8906 54.6999C51.902 55.6884 49.3318 57.1383 46.9593 55.0294C45.8609 56.0179 43.2687 57.336 41.687 54.6999L40.0394 38.2241C41.2477 38.1142 43.6641 36.5106 43.6641 30.9747C43.6641 25.4388 43.4444 20.7597 43.3346 19.1121C43.1149 17.9039 41.4893 15.4215 36.7443 15.1579C38.0623 13.8398 41.4674 13.73 43.0051 13.8398C42.6821 16.7396 44.8476 20.54 45.9707 22.0778L46.2039 15.9923C46.0111 15.8774 45.8216 15.713 45.6412 15.4874ZM30.8125 2.96565C36.4146 2.96575 38.4576 13.1149 30.8128 15.4874C23.168 13.1149 25.2104 2.96554 30.8125 2.96565ZM29.4947 18.4531C29.934 17.9039 31.1422 17.135 32.4603 18.4531C32.2903 18.6231 32.0423 18.8142 31.7496 18.9579L32.1308 25.0434C33.2292 23.407 35.2941 19.4684 34.7669 16.8055C36.3047 16.6957 39.7097 16.8055 41.0277 18.1236C41.2474 18.3432 41.6868 18.9803 41.6868 19.7711V33.2813C41.5769 34.2699 40.6982 36.247 38.0621 36.247L36.744 57.6655C35.7555 58.6541 33.1852 60.1039 30.8127 57.995C28.4402 60.1039 25.87 58.6541 24.8814 57.6655L23.5634 36.247C20.9272 36.247 20.0485 34.2699 19.9387 33.2813V19.7711C19.9387 18.9803 20.378 18.3432 20.5977 18.1236C21.9158 16.8055 25.3208 16.6957 26.8585 16.8055C26.3313 19.4684 28.3963 23.407 29.4947 25.0434L29.8266 25.7023L29.8242 25.0434L30.0573 18.9579C29.8645 18.843 29.6751 18.6786 29.4947 18.4531ZM12.8583 15.4874C14.1764 14.1694 15.3846 14.9382 15.8239 15.4874C15.6435 15.713 15.4541 15.8774 15.2612 15.9923L15.4944 22.0778C16.6176 20.54 18.7831 16.7396 18.4601 13.8398C19.9978 13.73 23.4028 13.8398 24.7209 15.1579C19.9758 15.4215 18.3502 17.9039 18.1306 19.1121C18.0207 20.7597 17.801 25.4388 17.801 30.9747C17.801 36.5106 20.2175 38.1142 21.4257 38.2241L19.7781 54.6999C18.1965 57.336 15.6043 56.0179 14.5059 55.0294C12.1334 57.1383 9.56313 55.6884 8.57458 54.6999L7.25651 33.2813C4.62038 33.2813 3.74167 31.3042 3.63184 30.3157V16.8055C3.63184 16.0147 4.07119 15.3776 4.29087 15.1579C5.60893 13.8398 9.01393 13.73 10.5517 13.8398C10.0244 16.5027 12.0894 20.4413 13.1878 22.0778L13.569 15.9923C13.2763 15.8486 13.0283 15.6575 12.8583 15.4874Z" stroke="#EDDCC0"/>
<path d="M6.10294 52.0635C-21.9084 64.9146 81.5599 65.9032 55.8599 52.0635" stroke="#EDDCC0" stroke-linecap="round" stroke-linejoin="round"/>
</svg>
