<svg width="55" height="48" viewBox="0 0 55 48" fill="none" xmlns="http://www.w3.org/2000/svg">
<path d="M55 22.2857H0.561224H0V13.1429C0 10.4 2.2449 9.71429 3.36735 9.71429H51.0714C54.2143 9.71429 55 12.7619 55 14.2857V22.2857Z" fill="#EDDCC0"/>
<path d="M18.5204 8H15.7143V2.85714C15.7143 0.571429 17.585 0 18.5204 0H36.4796C38.7245 0 39.2857 1.90476 39.2857 2.85714V8H36.4796V3.42857H18.5204V8Z" fill="#EDDCC0"/>
<path d="M21.8878 25.1429H0V44.5714C0 47.3143 1.87075 48 2.80612 48H52.1939C54.4388 48 55 45.7143 55 44.5714V25.1429H33.1122V30.8571H21.8878V25.1429Z" fill="#EDDCC0"/>
</svg>
