<svg width="73" height="43" viewBox="0 0 73 43" fill="none" xmlns="http://www.w3.org/2000/svg">
<path d="M62.3819 0L73 22.1342L65.7 26.8293L54.4182 4.0244L62.3819 0Z" fill="#EDDCC0"/>
<path d="M58.4001 24.8171L61.7182 22.8049L55.0819 8.71953H52.4271C50.4359 8.71953 49.1089 7.37806 44.4635 4.69513C40.7471 2.54878 37.6059 3.35366 36.4999 4.0244L28.5363 9.39026L25.882 14.7561C23.2277 17.9755 27.4305 16.9919 29.8638 16.0976C30.635 15.8141 31.722 14.2195 33.8456 12.0732C35.9692 9.92684 39.1547 10.7317 40.4819 11.4025L58.4001 24.8171Z" fill="#EDDCC0"/>
<path d="M17.9181 4.0244L6.63634 26.1586L0 22.1342L10.6181 0.670733L17.9181 4.0244Z" fill="#EDDCC0"/>
<path d="M17.9181 8.71953L10.6181 23.4756L15.9272 26.8293C20.1745 22 23.006 24.37 23.8908 26.1586C28.1381 24.0122 29.6423 27.0529 29.8635 28.8415C34.6417 27.7683 35.3938 31.0773 35.1726 32.8659C39.4199 32.8659 39.5968 36.4431 39.1544 38.2318L37.8271 40.244L41.8089 42.9269C46.0562 43.4635 45.7907 40.9147 45.1271 39.5732L41.1453 36.8903C40.4817 36.2196 40.4817 35.5488 41.8089 35.5488L47.118 38.9025C50.3035 39.4391 50.215 36.6667 49.7725 35.5488C48.4453 34.4309 44.8617 32.5976 43.7998 31.5244C43.1362 30.8537 43.7998 30.183 44.4635 30.183L51.0998 34.2074C54.8162 34.744 54.418 32.1952 53.7544 30.8537L47.118 26.1586C46.4544 24.8171 47.7816 24.1464 48.4453 24.8171L55.7453 30.183C58.9307 30.7196 58.8424 28.1708 58.4001 26.8293C53.3121 23.0285 42.6053 15.0244 40.4817 13.4147C38.358 11.8049 36.0574 12.7439 35.1726 13.4147C33.4029 14.7561 30.8621 17.7734 29.8638 18.1098C23.4931 20.2561 22.7849 17.2155 23.2272 15.4269C24.5545 13.1911 26.6781 9.7927 27.209 8.71953C27.7399 7.64635 32.5181 5.36586 33.8453 4.0244H30.5272C29.1999 4.0244 23.8908 8.04879 22.5636 8.71953C21.5017 9.25611 19.0242 8.9431 17.9181 8.71953Z" fill="#EDDCC0"/>
<path d="M19.2454 26.1586L15.9272 30.8537C15.9272 33.5366 18.1393 33.3131 19.2454 32.8659L22.5636 28.1708C22.5636 25.4878 20.3514 25.7114 19.2454 26.1586Z" fill="#EDDCC0"/>
<path d="M24.5545 28.1708L19.909 34.8781C19.909 37.561 22.1211 37.3375 23.2272 36.8903L27.8726 30.183C27.8726 27.5 25.6605 27.7236 24.5545 28.1708Z" fill="#EDDCC0"/>
<path d="M29.8635 30.8537L25.2181 37.561C25.2181 40.244 27.4302 40.0204 28.5363 39.5732L33.1817 32.8659C33.1817 30.183 30.9696 30.4066 29.8635 30.8537Z" fill="#EDDCC0"/>
<path d="M34.509 34.8781L31.1908 39.5732C31.1908 42.2562 33.4029 42.0326 34.509 41.5854L37.8271 36.8903C37.8271 34.2074 35.615 34.4309 34.509 34.8781Z" fill="#EDDCC0"/>
</svg>
