<svg width="89" height="52" viewBox="0 0 89 52" fill="none" xmlns="http://www.w3.org/2000/svg">
<path d="M45.2139 0L36.647 17.3333L18.0855 20.2222L31.4117 32.7407L28.5561 52L45.2139 43.3333L61.8716 52L59.016 32.7407L71.3904 20.2222L53.3048 17.3333L45.2139 0Z" fill="#EDDCC0"/>
<path d="M68.5347 7.22222L64.7272 15.4074L72.8182 16.3704L68.5347 7.22222Z" fill="#EDDCC0"/>
<path d="M62.3476 34.6667L77.1016 20.2222L89 21.1852L78.5294 31.2963L80.9091 45.2593L69.0107 38.5185L63.7754 41.4074L62.3476 34.6667Z" fill="#EDDCC0"/>
<path d="M20.4653 7.22222L24.2728 15.4074L16.1818 16.3704L20.4653 7.22222Z" fill="#EDDCC0"/>
<path d="M26.6524 34.6667L11.8984 20.2222L0 21.1852L10.4706 31.2963L8.09092 45.2593L19.9893 38.5185L25.2246 41.4074L26.6524 34.6667Z" fill="#EDDCC0"/>
</svg>
