<svg width="74" height="85" viewBox="0 0 74 85" fill="none" xmlns="http://www.w3.org/2000/svg">
<path d="M55.013 25.6309C54.2134 23.9451 50.5435 23.7021 48.8085 23.7914C36.4974 28.7351 41.7056 21.0885 45.5 17L43 23.5L47.5 19.5L47 23.5L50 21L45.5 23.5L51 22.5M55.013 25.6309C51.0371 18.2531 43.5237 14.0362 35.7191 13.9425M55.013 25.6309C56.0632 27.5798 56.7953 29.6168 57.227 31.6819M35.7191 13.9425C32.0309 13.8983 28.2777 14.7749 24.8021 16.6739C22.2249 18.082 20.0325 19.9254 18.2667 22.0637M35.7191 13.9425C36.8524 17.2323 37 20.5 32.7168 25.8095C30.9715 27.9728 28.8131 32.4437 33.4352 29.9183C38.0573 27.3929 37.7141 35.0827 35.403 36.3454C33.092 37.6081 32.0303 41.1892 33.2796 43.5075C34.5289 45.8258 24.7538 52.6672 23.5045 50.3489C22.2552 48.0305 25.628 43.1868 26.1588 41.3963C26.6897 39.6058 21.3491 38.0224 21.88 36.2319C22.4108 34.4413 24.7219 33.1786 23.4725 30.8603C22.2232 28.542 18.1319 29.2769 18.6628 27.4864C19.0875 26.054 18.5757 23.2744 18.2667 22.0637M18.2667 22.0637C12.6121 28.9108 11.3316 38.7809 15.7931 47.0599C21.6478 57.9242 35.1737 61.9344 46.004 56.017C54.8915 51.161 59.202 41.1287 57.227 31.6819M57.227 31.6819L50.5007 29.6876C47.3627 29.8714 42.1925 31.7355 46.6151 37.7217C51.0376 43.7079 46.8027 43.6211 46.2718 45.4116C44.2002 48.0439 45 56 45 56M48.6747 10.0608C61.5833 16.4328 66.3029 29.5119 63.8542 43.78C61.4997 57.4988 47.6631 65.6517 34.6673 65.3739M25.0972 63.4556C28.2191 64.6882 31.4535 65.3051 34.6673 65.3739M34.6673 65.3739L34.6673 75.7662L40.6577 75.7662L29.1577 75.7662M47.5 53.5L46.2718 51.5L50 51L47 47.5L46.6151 50L48.5 45L51.5 49.5L53.5 47.0599L49.5 42.5L48.8085 39L55.013 43.78L54 45L47 35.5L55.5 41.3963L56.5 38.5L46.2718 33L48 31.6819L56.5 36.2319L56.5 34L50.5007 30.8603M35 16L19.5 23L35.403 20.5L20 25.8095L35.403 18.5L23.5045 19L30 16L31.5 16L21 28L34 23.5L29 28L24 30L28.5 30.5L25 33.5L33.4352 31.5L36 32.5L32.7168 37L23.5 37L24 35.5L33.4352 34.5L31.5 40L27 39.5L32 43L27 43.5L30.5 46L25.5 46.5L25.5 49.5L27.5 48.5L26.1588 45L31.5 44.5L27.5 42" stroke="#EDDCC0" stroke-width="3" stroke-linecap="square" stroke-linejoin="round"/>
</svg>
