<svg width="84" height="62" viewBox="0 0 84 62" fill="none" xmlns="http://www.w3.org/2000/svg">
<path d="M74.2143 55.9398L77.1429 49.4337L80.8036 55.9398L77.1429 61L74.2143 55.9398Z" fill="#EDDCC0"/>
<path d="M42 41.4819L83 21.9639L42 1L1 21.9639L42 41.4819Z" fill="#EDDCC0"/>
<path d="M15.6429 43.6506V32.8072L42 45.8193L68.3571 32.8072V44.3735L44.1964 55.9398H40.5357L15.6429 43.6506Z" fill="#EDDCC0"/>
<path d="M77.1429 28.4699V49.4337M77.1429 49.4337L74.2143 55.9398L77.1429 61L80.8036 55.9398L77.1429 49.4337ZM83 21.9639L42 41.4819L1 21.9639L42 1L83 21.9639ZM15.6429 32.8072V43.6506L40.5357 55.9398H44.1964L68.3571 44.3735V32.8072L42 45.8193L15.6429 32.8072Z" stroke="#EDDCC0" stroke-width="0.5"/>
</svg>
